<mxfile host="Electron" modified="2023-05-23T04:19:50.289Z" agent="Mozilla/5.0 (Windows NT 10.0; Win64; x64) AppleWebKit/537.36 (KHTML, like Gecko) draw.io/21.2.8 Chrome/112.0.5615.165 Electron/24.2.0 Safari/537.36" etag="fQOgZcIFeMUA--vRJemA" version="21.2.8" type="device">
  <diagram name="Page-1" id="90a13364-a465-7bf4-72fc-28e22215d7a0">
    <mxGraphModel dx="1110" dy="490" grid="1" gridSize="10" guides="1" tooltips="1" connect="1" arrows="1" fold="1" page="1" pageScale="1.5" pageWidth="1169" pageHeight="826" background="none" math="0" shadow="0">
      <root>
        <mxCell id="0" style=";html=1;" />
        <mxCell id="1" style=";html=1;" parent="0" />
        <mxCell id="5xMvFER_81tlKy8niOjR-3" value="" style="edgeStyle=orthogonalEdgeStyle;rounded=0;orthogonalLoop=1;jettySize=auto;html=1;" edge="1" parent="1" source="5xMvFER_81tlKy8niOjR-1" target="5xMvFER_81tlKy8niOjR-2">
          <mxGeometry relative="1" as="geometry" />
        </mxCell>
        <mxCell id="5xMvFER_81tlKy8niOjR-1" value="DOMAIN" style="rounded=0;whiteSpace=wrap;html=1;" vertex="1" parent="1">
          <mxGeometry x="730" y="590" width="120" height="60" as="geometry" />
        </mxCell>
        <mxCell id="5xMvFER_81tlKy8niOjR-5" value="" style="edgeStyle=orthogonalEdgeStyle;rounded=0;orthogonalLoop=1;jettySize=auto;html=1;" edge="1" parent="1" source="5xMvFER_81tlKy8niOjR-2" target="5xMvFER_81tlKy8niOjR-4">
          <mxGeometry relative="1" as="geometry" />
        </mxCell>
        <mxCell id="5xMvFER_81tlKy8niOjR-2" value="INFRASTRUCTURE" style="whiteSpace=wrap;html=1;rounded=0;" vertex="1" parent="1">
          <mxGeometry x="730" y="480" width="120" height="60" as="geometry" />
        </mxCell>
        <mxCell id="5xMvFER_81tlKy8niOjR-7" value="" style="edgeStyle=orthogonalEdgeStyle;rounded=0;orthogonalLoop=1;jettySize=auto;html=1;" edge="1" parent="1" source="5xMvFER_81tlKy8niOjR-4" target="5xMvFER_81tlKy8niOjR-6">
          <mxGeometry relative="1" as="geometry" />
        </mxCell>
        <mxCell id="5xMvFER_81tlKy8niOjR-4" value="APPLICATION" style="whiteSpace=wrap;html=1;rounded=0;" vertex="1" parent="1">
          <mxGeometry x="730" y="370" width="120" height="60" as="geometry" />
        </mxCell>
        <mxCell id="5xMvFER_81tlKy8niOjR-6" value="API" style="whiteSpace=wrap;html=1;rounded=0;" vertex="1" parent="1">
          <mxGeometry x="730" y="250" width="120" height="60" as="geometry" />
        </mxCell>
      </root>
    </mxGraphModel>
  </diagram>
</mxfile>
